<svg width="75" height="75" viewBox="0 0 75 75" fill="none" xmlns="http://www.w3.org/2000/svg">
<path fill-rule="evenodd" clip-rule="evenodd" d="M37.5 0C38.3288 0 39.1237 0.329241 39.7097 0.915292C40.2958 1.50134 40.625 2.2962 40.625 3.125V34.375H71.875C72.7038 34.375 73.4987 34.7042 74.0847 35.2903C74.6708 35.8763 75 36.6712 75 37.5C75 38.3288 74.6708 39.1237 74.0847 39.7097C73.4987 40.2958 72.7038 40.625 71.875 40.625H40.625V71.875C40.625 72.7038 40.2958 73.4987 39.7097 74.0847C39.1237 74.6708 38.3288 75 37.5 75C36.6712 75 35.8763 74.6708 35.2903 74.0847C34.7042 73.4987 34.375 72.7038 34.375 71.875V40.625H3.125C2.2962 40.625 1.50134 40.2958 0.915292 39.7097C0.329241 39.1237 0 38.3288 0 37.5C0 36.6712 0.329241 35.8763 0.915292 35.2903C1.50134 34.7042 2.2962 34.375 3.125 34.375H34.375V3.125C34.375 2.2962 34.7042 1.50134 35.2903 0.915292C35.8763 0.329241 36.6712 0 37.5 0Z" fill="#C4C4C4"/>
</svg>
