<svg width="50" height="50" viewBox="0 0 50 50" fill="none" xmlns="http://www.w3.org/2000/svg">
<g clip-path="url(#clip0_67_255)">
<path d="M34.4357 15.375C34.4357 17.8614 33.4661 20.246 31.7403 22.0041C30.0145 23.7623 27.6739 24.75 25.2332 24.75C22.7926 24.75 20.4519 23.7623 18.7261 22.0041C17.0003 20.246 16.0308 17.8614 16.0308 15.375C16.0308 12.8886 17.0003 10.504 18.7261 8.74587C20.4519 6.98772 22.7926 6 25.2332 6C27.6739 6 30.0145 6.98772 31.7403 8.74587C33.4661 10.504 34.4357 12.8886 34.4357 15.375Z" fill="#2D39A5"/>
<path fill-rule="evenodd" clip-rule="evenodd" d="M0.325195 25C0.325195 18.3696 2.91064 12.0107 7.51276 7.32233C12.1149 2.63392 18.3567 0 24.8651 0C31.3735 0 37.6153 2.63392 42.2174 7.32233C46.8195 12.0107 49.4049 18.3696 49.4049 25C49.4049 31.6304 46.8195 37.9893 42.2174 42.6777C37.6153 47.3661 31.3735 50 24.8651 50C18.3567 50 12.1149 47.3661 7.51276 42.6777C2.91064 37.9893 0.325195 31.6304 0.325195 25ZM24.8651 3.125C20.8214 3.12522 16.8601 4.28863 13.4369 6.48134C10.0137 8.67404 7.26778 11.8069 5.51527 15.5194C3.76276 19.2318 3.07485 23.3729 3.53071 27.4661C3.98658 31.5593 5.56769 35.4382 8.09207 38.6562C10.27 35.0812 15.0645 31.25 24.8651 31.25C34.6657 31.25 39.4571 35.0781 41.6381 38.6562C44.1625 35.4382 45.7436 31.5593 46.1994 27.4661C46.6553 23.3729 45.9674 19.2318 44.2149 15.5194C42.4624 11.8069 39.7165 8.67404 36.2933 6.48134C32.8701 4.28863 28.9087 3.12522 24.8651 3.125Z" fill="#2D39A5"/>
</g>
<defs>
<clipPath id="clip0_67_255">
<rect width="49.0798" height="50" fill="white" transform="translate(0.325195)"/>
</clipPath>
</defs>
</svg>
