<svg width="1469" height="654" viewBox="0 0 1469 654" fill="none" xmlns="http://www.w3.org/2000/svg">
<path d="M1 276.5C17.6401 140.602 95 89.5 135.5 89.5C176 89.5 234 168.5 286.5 168.5C339 168.5 454.639 89.8617 509.5 89.5C564.361 89.1383 678.713 101.15 648.5 168.5C624.5 222 572.704 136.466 509.5 168.5C446.296 200.534 555.896 386.755 728 322C902.169 294.367 980.703 402.274 1049 653H1437.5C1437.5 653 1496 635.5 1437.5 567C1379 498.5 1340.64 448.564 1468 276.5C1461.71 118.872 1468 151.5 1468 151.5C1468 101.5 1366.03 88.4671 1353.5 106.5C1157.79 186.711 1092.71 147.896 1018 1H1V276.5Z" fill="#8AB8FF" stroke="#8AB8FF"/>
</svg>
