<svg width="1442" height="654" viewBox="0 0 1442 654" fill="none" xmlns="http://www.w3.org/2000/svg">
<path d="M1 276.5C17.3338 140.602 93.2699 89.5 133.025 89.5C172.779 89.5 229.712 168.5 281.245 168.5C332.779 168.5 446.29 89.8617 500.141 89.5C553.992 89.1383 666.24 101.15 636.583 168.5C613.025 222 562.181 136.466 500.141 168.5C438.101 200.534 545.683 386.755 714.62 322C885.583 294.367 962.671 402.274 1029.71 653H1411.06C1411.06 653 1468.48 635.5 1411.06 567C1353.64 498.5 1315.99 448.564 1441 276.5C1434.82 118.872 1441 151.5 1441 151.5C1441 101.5 1340.91 88.4671 1328.61 106.5C1136.5 186.711 1072.62 147.896 999.282 1H1V276.5Z" fill="#8AB8FF" stroke="#8AB8FF"/>
</svg>
